<svg width="537" height="790" viewBox="0 0 537 790" fill="none" xmlns="http://www.w3.org/2000/svg">
<path d="M54.3666 1L1 69.2251V789H485.302L536 724.186V1H54.3666Z" fill="#56F1FF" fill-opacity="0.15" stroke="#56F1FF" stroke-width="2"/>
<mask id="path-2-inside-1_1_196" fill="white">
<path d="M17 607.735H137.283V773H17V607.735Z"/>
</mask>
<path d="M17 773H16V774H17V773ZM137.283 772H17V774H137.283V772ZM18 773V607.735H16V773H18Z" fill="#56F1FF" mask="url(#path-2-inside-1_1_196)"/>
<mask id="path-4-inside-2_1_196" fill="white">
<path d="M520 182.265L399.717 182.265L399.717 17.0002L520 17.0002L520 182.265Z"/>
</mask>
<path d="M520 17.0002L521 17.0002L521 16.0002L520 16.0002L520 17.0002ZM399.717 18.0002L520 18.0002L520 16.0002L399.717 16.0002L399.717 18.0002ZM519 17.0002L519 182.265L521 182.265L521 17.0002L519 17.0002Z" fill="#56F1FF" mask="url(#path-4-inside-2_1_196)"/>
<line x1="33" y1="98.5" x2="504" y2="98.5" stroke="#56F1FF"/>
</svg>
