<svg width="549" height="814" viewBox="0 0 549 814" fill="none" xmlns="http://www.w3.org/2000/svg">
<g filter="url(#filter0_d_1_239)">
<path d="M54.3666 9L1 77.2251V797H485.302L536 732.186V9H54.3666Z" fill="white"/>
<path d="M54.3666 9L1 77.2251V797H485.302L536 732.186V9H54.3666Z" stroke="#3040D3" stroke-width="2"/>
</g>
<mask id="path-2-inside-1_1_239" fill="white">
<path d="M17 615.735H137.283V781H17V615.735Z"/>
</mask>
<path d="M17 781H16V782H17V781ZM137.283 780H17V782H137.283V780ZM18 781V615.735H16V781H18Z" fill="#3040D3" mask="url(#path-2-inside-1_1_239)"/>
<mask id="path-4-inside-2_1_239" fill="white">
<path d="M520 190.265L399.717 190.265L399.717 25.0002L520 25.0002L520 190.265Z"/>
</mask>
<path d="M520 25.0002L521 25.0002L521 24.0002L520 24.0002L520 25.0002ZM399.717 26.0002L520 26.0002L520 24.0002L399.717 24.0002L399.717 26.0002ZM519 25.0002L519 190.265L521 190.265L521 25.0002L519 25.0002Z" fill="#3040D3" mask="url(#path-4-inside-2_1_239)"/>
<defs>
<filter id="filter0_d_1_239" x="-12" y="0" width="561" height="814" filterUnits="userSpaceOnUse" color-interpolation-filters="sRGB">
<feFlood flood-opacity="0" result="BackgroundImageFix"/>
<feColorMatrix in="SourceAlpha" type="matrix" values="0 0 0 0 0 0 0 0 0 0 0 0 0 0 0 0 0 0 127 0" result="hardAlpha"/>
<feOffset dy="4"/>
<feGaussianBlur stdDeviation="6"/>
<feComposite in2="hardAlpha" operator="out"/>
<feColorMatrix type="matrix" values="0 0 0 0 0 0 0 0 0 0 0 0 0 0 0 0 0 0 0.15 0"/>
<feBlend mode="normal" in2="BackgroundImageFix" result="effect1_dropShadow_1_239"/>
<feBlend mode="normal" in="SourceGraphic" in2="effect1_dropShadow_1_239" result="shape"/>
</filter>
</defs>
</svg>
