<svg width="400" height="400" viewBox="0 0 400 400" fill="none" xmlns="http://www.w3.org/2000/svg">
<g clip-path="url(#clip0_2007_36258)">
<path d="M-24.2869 418.296C-18.2287 394.064 -19.6929 369.81 -8.1075 347.093C-3.97596 338.992 2.55316 332.973 5.28897 324.38C26.302 312.225 45.945 297.043 67.1294 285.222C84.2763 275.653 108.774 268.199 124.05 258.408C128.139 255.788 129.15 251.613 133.033 249.597C146.802 242.455 150.18 251.964 148.467 228.331C147.491 214.896 144.006 214.335 139.142 204.167C137.597 200.943 135.7 191.528 134.3 190.09C132.9 188.651 123.507 191.939 121.666 189.195C120.617 187.632 121.726 184.404 120.985 182.55C115.997 170.104 106.056 164.65 107.627 148.851C108.993 135.104 118.061 136.791 119.041 134.029C119.452 132.873 117.885 126.507 118.005 123.685C118.737 106.568 119.529 89.4344 123.383 72.7027C124.483 67.9332 123.502 70.5491 123.597 67.0812C123.661 64.7136 125.125 62.5686 125.146 60.7276C125.164 59.1521 123.173 58.146 123.43 55.9453C123.986 51.2101 137.297 43.2253 139.172 37.6381C144.768 39.188 151.871 29.8289 156.379 27.0288C158.254 25.8643 164.668 24.8753 164.998 24.5713C165.867 23.7707 165.867 20.9407 166.295 20.6581C167.083 20.1315 178.493 19.4893 179.914 19.1553C183.759 18.2563 189.573 14.844 194.137 14.8697C198.726 14.8954 202.443 16.9205 206.643 17.3486C208.625 17.5498 213.467 17.4599 211.245 15.4134C220.698 15.7688 229.026 17.263 237.28 22.3321C241.549 24.9524 242.979 28.3903 245.796 30.561C251.529 34.9794 258.272 38.5629 264.137 42.6174C267.246 44.7666 271.767 54.5582 272.555 58.2958C273.265 61.6909 271.711 64.9362 272.174 67.9503C273.158 74.4152 276.99 82.3016 278.206 90.2478C280.3 103.923 279.893 118.128 280.467 131.94C299.497 142.977 288.314 162.308 281.713 177.318C281.04 178.847 278.818 179.035 278.416 180.362C277.718 182.649 278.87 186.596 278.078 187.915C276.481 190.569 268.008 187.213 265.927 189.366C265.272 190.047 259.27 205.177 258.85 206.894C257.103 214.087 257.129 235.404 261.042 241.355C263.607 245.26 269.451 244.969 273.95 248.334C277.924 251.305 279.105 255.064 283.952 258.22C301.39 269.578 329.66 279.104 349.727 290.831C358.268 295.823 393.667 316.524 398.633 321.469C405.984 328.785 417.749 350.882 422.121 360.776C430.457 379.648 436.391 399.779 438.386 420.386H-24.2869V418.292V418.296Z" fill="#FF0000"/>
</g>
<defs>
<clipPath id="clip0_2007_36258">
<rect width="462.39" height="462.39" fill="white" transform="translate(-24 -42)"/>
</clipPath>
</defs>
</svg>
